<svg width="223" height="50" viewBox="0 0 223 50" fill="none" xmlns="http://www.w3.org/2000/svg">
<path d="M46.3723 10.6V39H52.1323V21.04L58.7323 33.08H62.9723L69.5723 21.04V39H75.3323V10.6H69.9323L60.9323 27L51.9723 10.6H46.3723ZM81.313 10.6V39H91.833C96.993 39 102.193 36.68 102.193 30.92C102.193 27.72 100.633 25.12 97.633 23.96C99.913 22.72 100.993 20.52 100.993 17.96C100.993 12.52 96.273 10.6 91.633 10.6H81.313ZM87.073 34.08V26.64H91.553C94.033 26.64 96.233 27.56 96.233 30.36C96.233 33.16 94.033 34.08 91.553 34.08H87.073ZM87.073 22.04V15.52H90.993C93.193 15.52 95.073 16.32 95.073 18.8C95.073 21.24 93.153 22.04 90.993 22.04H87.073ZM104.786 15.88H112.786V39H118.746V15.88H126.746V10.6H104.786V15.88ZM126.753 28.44C126.753 34.8 131.433 39.6 137.713 39.6C144.193 39.6 148.833 34.72 148.833 28.4C148.833 22 144.153 17.28 137.873 17.28C131.473 17.28 126.753 22.16 126.753 28.44ZM137.793 22.32C141.193 22.32 143.113 25.32 143.113 28.44C143.113 31.6 141.113 34.56 137.793 34.56C134.433 34.56 132.473 31.52 132.473 28.44C132.473 25.28 134.473 22.32 137.793 22.32ZM153.314 9.16V39H158.794V28.48L167.074 39H174.154L164.394 27.24L173.194 17.88H166.634L158.794 26.48V9.16H153.314ZM175.423 28.4C175.423 34.8 179.863 39.6 186.223 39.6C190.183 39.6 194.303 37.64 195.823 33.84L190.823 32.24C189.783 33.92 188.263 34.88 186.263 34.88C183.223 34.88 181.543 32.64 181.103 29.84H196.263V28.44C196.263 22.04 192.383 17.28 185.943 17.28C179.623 17.28 175.423 22.4 175.423 28.4ZM185.943 21.6C188.623 21.6 190.143 23.6 190.503 26.08H181.183C181.663 23.6 183.263 21.6 185.943 21.6ZM200.539 17.88V39H206.139V26.88C206.139 24.28 207.859 22.32 210.459 22.32C213.219 22.32 214.219 24.6 214.219 27.04V39H219.819V26.32C219.819 21.4 217.299 17.28 212.099 17.28C209.539 17.28 207.179 18.36 205.859 20.6L205.699 17.88H200.539Z" fill="#F7F7F7"/>
<path d="M37.5447 15.0017C40.8164 22.9887 37.8168 33.9749 30.8219 39.5337C23.827 45.0925 15.5106 43.0989 12.239 35.1119C8.96732 27.1249 11.9669 16.1387 18.9618 10.5799C25.9567 5.02115 34.273 7.01472 37.5447 15.0017Z" fill="#434343" stroke="#434343" stroke-width="0.2"/>
<path d="M39.9378 16.4308C43.0265 23.9713 40.1949 34.3441 33.5901 39.5929C26.9853 44.8417 19.1334 42.9588 16.0447 35.4184C12.956 27.878 15.7876 17.5051 22.3924 12.2563C28.9973 7.00755 36.8491 8.8904 39.9378 16.4308Z" fill="white" stroke="#434343" stroke-width="0.2"/>
<path d="M38.8948 17.5849C41.752 24.5602 39.2874 34.014 33.3901 38.7005C27.4927 43.3871 20.3957 41.5318 17.5384 34.5565C14.6812 27.5811 17.1458 18.1274 23.0431 13.4408C28.9405 8.75427 36.0375 10.6095 38.8948 17.5849Z" stroke="#434343" stroke-width="0.2"/>
<path d="M37.0899 19.3414C39.4639 25.1369 37.4484 32.9642 32.5905 36.8248C27.7325 40.6854 21.8692 39.1191 19.4952 33.3236C17.1213 27.5281 19.1367 19.7008 23.9947 15.8402C28.8527 11.9796 34.7159 13.5458 37.0899 19.3414Z" stroke="#434343" stroke-width="0.2"/>
<path d="M29.2659 21.7027L29.2659 21.4749L29.9966 21.1615L29.9966 21.3893L29.2659 21.7027Z" fill="#434343" stroke="#434343" stroke-width="0.2"/>
<path d="M28.5802 22.8524L28.5802 22.6246L30.6827 21.7227L30.6827 21.9505L28.5802 22.8524Z" fill="#434343" stroke="#434343" stroke-width="0.2"/>
<path d="M25.3795 27.2197L25.3795 26.992L25.653 26.8747L25.653 27.1024L25.3795 27.2197Z" fill="#434343" stroke="#434343" stroke-width="0.2"/>
<path d="M26.293 26.8274L26.293 26.5996L26.5664 26.4823L26.5664 26.7101L26.293 26.8274Z" fill="#434343" stroke="#434343" stroke-width="0.2"/>
<path d="M27.2081 26.4351L27.2081 26.2074L27.4816 26.0901L27.4816 26.3178L27.2081 26.4351Z" fill="#434343" stroke="#434343" stroke-width="0.2"/>
<path d="M28.1236 26.0427L28.1236 25.8149L28.3971 25.6976L28.3971 25.9254L28.1236 26.0427Z" fill="#434343" stroke="#434343" stroke-width="0.2"/>
<path d="M29.0371 25.6502L29.0371 25.4225L29.3106 25.3052L29.3106 25.5329L29.0371 25.6502Z" fill="#434343" stroke="#434343" stroke-width="0.2"/>
<path d="M29.9523 25.2581L29.9523 25.0303L30.2257 24.913L30.2257 25.1408L29.9523 25.2581Z" fill="#434343" stroke="#434343" stroke-width="0.2"/>
<path d="M30.8674 24.8657L30.8674 24.638L31.1409 24.5207L31.1409 24.7484L30.8674 24.8657Z" fill="#434343" stroke="#434343" stroke-width="0.2"/>
<path d="M31.7809 24.4735L31.7809 24.2457L32.0543 24.1284L32.0543 24.3562L31.7809 24.4735Z" fill="#434343" stroke="#434343" stroke-width="0.2"/>
<path d="M32.696 24.0813L32.696 23.8535L32.9695 23.7362L32.9695 23.964L32.696 24.0813Z" fill="#434343" stroke="#434343" stroke-width="0.2"/>
<path d="M33.6095 23.689L33.6095 23.4612L33.8829 23.3439L33.8829 23.5717L33.6095 23.689Z" fill="#434343" stroke="#434343" stroke-width="0.2"/>
<path d="M27.4372 29.3312L27.4372 29.1035L27.7107 28.9862L27.7107 29.2139L27.4372 29.3312Z" fill="#434343" stroke="#434343" stroke-width="0.2"/>
<path d="M30.5463 27.5699L30.4544 27.6093L30.4544 27.7093L30.4544 28.5649L30.4544 28.6649L30.5463 28.6254L31.6894 28.1351L31.7813 28.0957L31.7813 27.9957L31.7813 27.1401L31.7813 27.0401L31.6894 27.0796L30.5463 27.5699ZM32.0548 27.8784L32.0548 27.9784L32.1467 27.9389L33.2899 27.4486L33.3818 27.4091L33.3818 27.3091L33.3818 26.4536L33.3818 26.3536L33.2899 26.393L32.1467 26.8834L32.0548 26.9228L32.0548 27.0228L32.0548 27.8784ZM33.2899 26.1653L33.3818 26.1259L33.3818 26.0259L33.3818 25.1704L33.3818 25.0704L33.2899 25.1098L32.1467 25.6001L32.0548 25.6396L32.0548 25.7396L32.0548 26.5951L32.0548 26.6951L32.1467 26.6557L33.2899 26.1653ZM31.7813 25.8569L31.7813 25.7569L31.6894 25.7963L30.5463 26.2866L30.4544 26.3261L30.4544 26.4261L30.4544 27.2816L30.4544 27.3816L30.5463 27.3422L31.6894 26.8518L31.7813 26.8124L31.7813 26.7124L31.7813 25.8569ZM30.1809 28.896L30.1809 26.3295C30.1809 26.2932 30.193 26.2627 30.2118 26.2371C30.2318 26.2098 30.2662 26.179 30.3176 26.157L33.5185 24.7839C33.57 24.7619 33.6044 24.7631 33.6244 24.7732C33.6431 24.7827 33.6552 24.8027 33.6552 24.8392L33.6552 27.4057C33.6552 27.4422 33.6431 27.4727 33.6244 27.4982C33.6044 27.5255 33.57 27.5562 33.5185 27.5783L30.3176 28.9513C30.2661 28.9734 30.2317 28.9721 30.2118 28.962C30.1931 28.9525 30.1809 28.9325 30.1809 28.896Z" fill="#434343" stroke="#434343" stroke-width="0.2"/>
<path d="M35.4842 28.1183L35.4842 28.2183L35.5761 28.1789L36.3987 27.826L36.3987 28.0537L35.3475 28.5047L23.9158 33.4083L22.8645 33.8593L22.8645 33.6315L23.6871 33.2786L23.779 33.2392L23.779 33.1392L23.779 32.4976C23.779 32.4611 23.7912 32.4306 23.8099 32.4051C23.8299 32.3778 23.8643 32.3471 23.9158 32.325L24.373 32.1289L24.4649 32.0895L24.4649 31.9895L24.4649 26.8564L24.4649 26.7564L24.373 26.7958L23.6871 27.09C23.6356 27.1121 23.6012 27.1109 23.5813 27.1008C23.5625 27.0913 23.5504 27.0712 23.5504 27.0348L23.5504 26.2434C23.5504 26.2089 23.5602 26.1769 23.5956 26.1397L23.7328 25.9953L23.779 25.9467L23.779 25.938L29.5439 19.4578L29.5442 19.4575C29.578 19.4193 29.6067 19.3985 29.6316 19.3878C29.6566 19.3771 29.6853 19.3733 29.719 19.3825L29.7196 19.3826L31.6401 19.8849L31.7812 19.9218L31.7812 19.7399L31.7812 18.7988C31.7812 18.7624 31.7934 18.7319 31.8121 18.7064C31.8321 18.6791 31.8665 18.6484 31.918 18.6263L33.747 17.8417C33.7985 17.8196 33.8329 17.8209 33.8529 17.831C33.8716 17.8405 33.8838 17.8605 33.8838 17.897L33.8838 20.4421L33.8838 20.4971L33.9265 20.5083L35.6641 20.9606L35.6641 20.9607L35.6676 20.9614C35.703 20.9683 35.7128 20.9919 35.7128 21.0264L35.7128 21.8177C35.7128 21.8542 35.7007 21.8846 35.682 21.9102C35.662 21.9374 35.6276 21.9682 35.5761 21.9902L34.8902 22.2845L34.7983 22.3239L34.7983 22.4239L34.7983 27.557L34.7983 27.657L34.8902 27.6176L35.3475 27.4214C35.399 27.3993 35.4334 27.4005 35.4533 27.4107C35.472 27.4201 35.4842 27.4402 35.4842 27.4766L35.4842 28.1183ZM33.6103 18.2281L33.6103 18.1281L33.5184 18.1676L32.1466 18.756L32.0547 18.7954L32.0547 18.8954L32.0547 19.1093L32.0547 19.2093L32.1466 19.1699L33.5184 18.5814L33.6103 18.542L33.6103 18.442L33.6103 18.2281ZM32.1466 19.3976L32.0547 19.4371L32.0547 19.5371L32.0547 19.9434L32.0547 19.9979L32.0968 20.0094L33.4686 20.3834L33.6103 20.4221L33.6103 20.2386L33.6103 18.8698L33.6103 18.7698L33.5184 18.8092L32.1466 19.3976ZM23.9158 26.1364L23.8239 26.1758L23.8239 26.2758L23.8239 26.7038L23.8239 26.8038L23.9158 26.7644L24.6017 26.4702L34.6616 22.155L35.3475 21.8608L35.4394 21.8214L35.4394 21.7214L35.4394 21.2508L35.4394 21.1961L35.397 21.1848L29.6811 19.6584L29.6316 19.6452L29.5821 19.7009L24.415 25.5103L24.15 25.8082L24.4645 25.6733L32.9692 22.0252L32.9692 22.2529L23.9158 26.1364ZM24.8303 26.5997L24.7384 26.6391L24.7384 26.7391L24.7384 31.8722L24.7384 31.9722L24.8303 31.9327L25.7448 31.5405L25.8367 31.501L25.8367 31.401L25.8367 28.4067L25.8367 28.3067L25.7448 28.3462L25.3795 28.5029L25.3795 28.2751L25.9735 28.0203L28.4884 26.9415L29.0824 26.6867L29.0824 26.9145L28.7171 27.0712L28.6252 27.1106L28.6252 27.2106L28.6252 30.2049L28.6252 30.3049L28.7171 30.2655L34.4329 27.8137L34.5248 27.7743L34.5248 27.6743L34.5248 22.5412L34.5248 22.4412L34.4329 22.4806L24.8303 26.5997ZM26.2021 28.15L26.1102 28.1894L26.1102 28.2894L26.1102 31.2837L26.1102 31.3837L26.2021 31.3443L28.2598 30.4617L28.3517 30.4222L28.3517 30.3222L28.3517 27.3279L28.3517 27.2279L28.2598 27.2674L26.2021 28.15ZM24.0525 33.0219L24.0525 33.1219L24.1444 33.0825L35.1188 28.375L35.2107 28.3356L35.2107 28.2356L35.2107 27.8078L35.2107 27.7078L35.1188 27.7472L34.6616 27.9434L28.4884 30.5913L25.9735 31.6701L24.6017 32.2586L24.1444 32.4547L24.0525 32.4941L24.0525 32.5941L24.0525 33.0219Z" fill="#434343" stroke="#434343" stroke-width="0.2"/>
</svg>
